<svg version="1" xmlns="http://www.w3.org/2000/svg" width="1365.333" height="1365.333" viewBox="0 0 1024.000000 1024.000000"><path d="M213.1 501.3c-53.5 166.2-97.6 302.8-97.8 303.5-.4 1 7.5 1.2 38.8 1l39.4-.3 23-77.5c12.7-42.7 23.4-78.3 23.8-79.3.6-1.6 6.9-1.7 102.7-1.7h102l1 2.5c.5 1.4 11.1 36.1 23.5 77 12.4 41 23 75.6 23.5 77l1 2.5h38.5c32.2 0 38.5-.2 38.5-1.4 0-1-116.5-362.9-186.6-579.4l-8.5-26.2h-65.4l-97.4 302.3zm171.3-58c22.5 74.9 41.1 136.8 41.4 137.4.3 1-16.5 1.3-82.2 1.3-45.4 0-82.6-.3-82.6-.8-.1-1.4 81.5-274.2 82-274.2.3 0 18.9 61.3 41.4 136.3zM605 502.5V806l157.3-.2 157.2-.3.3-32.8.2-32.7H682V199h-77v303.5z"/></svg>